<?xml version="1.0" standalone="no"?><svg xmlns="http://www.w3.org/2000/svg" viewBox="0 0 1440 320"><path fill="#0099ff" fill-opacity="1" d="M0,0L13.3,21.3C26.7,43,53,85,80,122.7C106.7,160,133,192,160,197.3C186.7,203,213,181,240,160C266.7,139,293,117,320,117.3C346.7,117,373,139,400,133.3C426.7,128,453,96,480,122.7C506.7,149,533,235,560,229.3C586.7,224,613,128,640,106.7C666.7,85,693,139,720,160C746.7,181,773,171,800,181.3C826.7,192,853,224,880,240C906.7,256,933,256,960,256C986.7,256,1013,256,1040,256C1066.7,256,1093,256,1120,240C1146.7,224,1173,192,1200,192C1226.7,192,1253,224,1280,245.3C1306.7,267,1333,277,1360,240C1386.7,203,1413,117,1427,74.7L1440,32L1440,320L1426.7,320C1413.3,320,1387,320,1360,320C1333.3,320,1307,320,1280,320C1253.3,320,1227,320,1200,320C1173.3,320,1147,320,1120,320C1093.3,320,1067,320,1040,320C1013.3,320,987,320,960,320C933.3,320,907,320,880,320C853.3,320,827,320,800,320C773.3,320,747,320,720,320C693.3,320,667,320,640,320C613.3,320,587,320,560,320C533.3,320,507,320,480,320C453.3,320,427,320,400,320C373.3,320,347,320,320,320C293.3,320,267,320,240,320C213.3,320,187,320,160,320C133.3,320,107,320,80,320C53.3,320,27,320,13,320L0,320Z"></path></svg>